<?xml version="1.0" encoding="UTF-8" standalone="no"?>
<!DOCTYPE svg PUBLIC "-//W3C//DTD SVG 1.1//EN"
 "http://www.w3.org/Graphics/SVG/1.1/DTD/svg11.dtd">
<!-- Generated by graphviz version 15.1.0 (20260618.0150)
 -->
<!-- Title: G Pages: 1 -->
<svg width="1023pt" height="167pt"
 viewBox="0.00 0.00 1023.00 167.00" xmlns="http://www.w3.org/2000/svg" xmlns:xlink="http://www.w3.org/1999/xlink">
<g id="graph0" class="graph" transform="scale(1 1) rotate(0) translate(4 163)">
<title>G</title>
<polygon fill="white" stroke="none" points="-4,4 -4,-163 1019.25,-163 1019.25,4 -4,4"/>
<!-- data.aws_ami.al2023 -->
<g id="node1" class="node">
<title>data.aws_ami.al2023</title>
<polygon fill="none" stroke="black" points="809.12,-151 662.62,-151 662.62,-115 809.12,-115 809.12,-151"/>
<text xml:space="preserve" text-anchor="middle" x="735.88" y="-128.32" font-family="sans-serif" font-size="14.00">data.aws_ami.al2023</text>
</g>
<!-- data.aws_availability_zones.available -->
<g id="node2" class="node">
<title>data.aws_availability_zones.available</title>
<polygon fill="none" stroke="black" points="380.75,-105 139,-105 139,-69 380.75,-69 380.75,-105"/>
<text xml:space="preserve" text-anchor="middle" x="259.88" y="-82.33" font-family="sans-serif" font-size="14.00">data.aws_availability_zones.available</text>
</g>
<!-- aws_instance.web -->
<g id="node3" class="node">
<title>aws_instance.web</title>
<polygon fill="none" stroke="black" points="1015.25,-97 887.5,-97 887.5,-61 1015.25,-61 1015.25,-97"/>
<text xml:space="preserve" text-anchor="middle" x="951.38" y="-74.33" font-family="sans-serif" font-size="14.00">aws_instance.web</text>
</g>
<!-- aws_instance.web&#45;&gt;data.aws_ami.al2023 -->
<g id="edge1" class="edge">
<title>aws_instance.web&#45;&gt;data.aws_ami.al2023</title>
<path fill="none" stroke="black" d="M887.17,-96.62C875.33,-99.81 863.05,-103.06 851.5,-106 841.43,-108.56 830.83,-111.17 820.32,-113.71"/>
<polygon fill="black" stroke="black" points="819.81,-110.23 810.9,-115.97 821.44,-117.04 819.81,-110.23"/>
</g>
<!-- aws_route_table_association.public -->
<g id="node6" class="node">
<title>aws_route_table_association.public</title>
<polygon fill="none" stroke="black" points="851.5,-97 620.25,-97 620.25,-61 851.5,-61 851.5,-97"/>
<text xml:space="preserve" text-anchor="middle" x="735.88" y="-74.33" font-family="sans-serif" font-size="14.00">aws_route_table_association.public</text>
</g>
<!-- aws_instance.web&#45;&gt;aws_route_table_association.public -->
<g id="edge2" class="edge">
<title>aws_instance.web&#45;&gt;aws_route_table_association.public</title>
<path fill="none" stroke="black" d="M887.18,-79C879.49,-79 871.43,-79 863.22,-79"/>
<polygon fill="black" stroke="black" points="863.45,-75.5 853.45,-79 863.45,-82.5 863.45,-75.5"/>
</g>
<!-- aws_security_group.web -->
<g id="node7" class="node">
<title>aws_security_group.web</title>
<polygon fill="none" stroke="black" points="584.25,-36 416.75,-36 416.75,0 584.25,0 584.25,-36"/>
<text xml:space="preserve" text-anchor="middle" x="500.5" y="-13.32" font-family="sans-serif" font-size="14.00">aws_security_group.web</text>
</g>
<!-- aws_instance.web&#45;&gt;aws_security_group.web -->
<g id="edge3" class="edge">
<title>aws_instance.web&#45;&gt;aws_security_group.web</title>
<path fill="none" stroke="black" d="M889.04,-60.52C876.69,-57.29 863.75,-54.25 851.5,-52 765.58,-36.21 666.36,-27.45 595.55,-22.79"/>
<polygon fill="black" stroke="black" points="596.15,-19.33 585.95,-22.18 595.7,-26.31 596.15,-19.33"/>
</g>
<!-- aws_internet_gateway.igw -->
<g id="node4" class="node">
<title>aws_internet_gateway.igw</title>
<polygon fill="none" stroke="black" points="348.88,-159 170.88,-159 170.88,-123 348.88,-123 348.88,-159"/>
<text xml:space="preserve" text-anchor="middle" x="259.88" y="-136.32" font-family="sans-serif" font-size="14.00">aws_internet_gateway.igw</text>
</g>
<!-- aws_vpc.main -->
<g id="node9" class="node">
<title>aws_vpc.main</title>
<polygon fill="none" stroke="black" points="103,-59 0,-59 0,-23 103,-23 103,-59"/>
<text xml:space="preserve" text-anchor="middle" x="51.5" y="-36.33" font-family="sans-serif" font-size="14.00">aws_vpc.main</text>
</g>
<!-- aws_internet_gateway.igw&#45;&gt;aws_vpc.main -->
<g id="edge4" class="edge">
<title>aws_internet_gateway.igw&#45;&gt;aws_vpc.main</title>
<path fill="none" stroke="black" d="M170.44,-126.2C159.57,-122.9 148.84,-118.89 139,-114 115.62,-102.38 93.22,-83.16 77.07,-67.36"/>
<polygon fill="black" stroke="black" points="79.82,-65.17 70.29,-60.54 74.85,-70.1 79.82,-65.17"/>
</g>
<!-- aws_route_table.public -->
<g id="node5" class="node">
<title>aws_route_table.public</title>
<polygon fill="none" stroke="black" points="579,-155 422,-155 422,-119 579,-119 579,-155"/>
<text xml:space="preserve" text-anchor="middle" x="500.5" y="-132.32" font-family="sans-serif" font-size="14.00">aws_route_table.public</text>
</g>
<!-- aws_route_table.public&#45;&gt;aws_internet_gateway.igw -->
<g id="edge5" class="edge">
<title>aws_route_table.public&#45;&gt;aws_internet_gateway.igw</title>
<path fill="none" stroke="black" d="M421.7,-138.3C402.19,-138.63 380.99,-138.99 360.57,-139.33"/>
<polygon fill="black" stroke="black" points="360.78,-135.82 350.84,-139.49 360.9,-142.82 360.78,-135.82"/>
</g>
<!-- aws_route_table_association.public&#45;&gt;aws_route_table.public -->
<g id="edge6" class="edge">
<title>aws_route_table_association.public&#45;&gt;aws_route_table.public</title>
<path fill="none" stroke="black" d="M655.27,-97.49C643.52,-100.3 631.56,-103.19 620.25,-106 607.93,-109.06 594.92,-112.37 582.2,-115.65"/>
<polygon fill="black" stroke="black" points="581.4,-112.25 572.59,-118.14 583.15,-119.02 581.4,-112.25"/>
</g>
<!-- aws_subnet.public -->
<g id="node8" class="node">
<title>aws_subnet.public</title>
<polygon fill="none" stroke="black" points="564.38,-97 436.62,-97 436.62,-61 564.38,-61 564.38,-97"/>
<text xml:space="preserve" text-anchor="middle" x="500.5" y="-74.33" font-family="sans-serif" font-size="14.00">aws_subnet.public</text>
</g>
<!-- aws_route_table_association.public&#45;&gt;aws_subnet.public -->
<g id="edge7" class="edge">
<title>aws_route_table_association.public&#45;&gt;aws_subnet.public</title>
<path fill="none" stroke="black" d="M619.9,-79C605.07,-79 590.2,-79 576.25,-79"/>
<polygon fill="black" stroke="black" points="576.29,-75.5 566.29,-79 576.29,-82.5 576.29,-75.5"/>
</g>
<!-- aws_security_group.web&#45;&gt;aws_vpc.main -->
<g id="edge8" class="edge">
<title>aws_security_group.web&#45;&gt;aws_vpc.main</title>
<path fill="none" stroke="black" d="M416.27,-16.89C343.08,-16.67 233.75,-18.19 139,-27 130.98,-27.75 122.58,-28.78 114.3,-29.96"/>
<polygon fill="black" stroke="black" points="113.99,-26.46 104.62,-31.4 115.03,-33.39 113.99,-26.46"/>
</g>
<!-- aws_subnet.public&#45;&gt;data.aws_availability_zones.available -->
<g id="edge9" class="edge">
<title>aws_subnet.public&#45;&gt;data.aws_availability_zones.available</title>
<path fill="none" stroke="black" d="M436.18,-81.12C422.4,-81.58 407.34,-82.09 392.01,-82.6"/>
<polygon fill="black" stroke="black" points="392.21,-79.1 382.33,-82.93 392.44,-86.09 392.21,-79.1"/>
</g>
<!-- aws_subnet.public&#45;&gt;aws_vpc.main -->
<g id="edge10" class="edge">
<title>aws_subnet.public&#45;&gt;aws_vpc.main</title>
<path fill="none" stroke="black" d="M436.18,-67.66C418.31,-64.79 398.81,-61.96 380.75,-60 288.4,-49.97 180.82,-45.01 114.69,-42.73"/>
<polygon fill="black" stroke="black" points="114.86,-39.24 104.75,-42.4 114.63,-46.23 114.86,-39.24"/>
</g>
</g>
</svg>
